<svg id="Layer_1" data-name="Layer 1" xmlns="http://www.w3.org/2000/svg" viewBox="0 0 67.78 95.9"><defs><style>.cls-1{fill:#807768;}.cls-2{fill:#779152;}.cls-3{fill:#938878;}.cls-4{fill:#f4f6f0;}.cls-5{fill:#c3cfac;}.cls-6{fill:#897f6f;}.cls-7{fill:#bdba8e;}.cls-8{fill:#9aa772;}.cls-9{fill:#79925d;}.cls-10{fill:#97a67e;}.cls-11{fill:#e2e4d6;}.cls-12{fill:#3c5c06;}.cls-13{fill:#8b8172;}.cls-14{fill:#b7b49d;}.cls-15{fill:#81975d;}.cls-16{fill:#3b4f14;}.cls-17{fill:#465b21;}.cls-18{fill:#647f2f;}.cls-19{fill:#7d8d5c;}.cls-20{fill:#716b30;}.cls-21{fill:#ccd5b7;}.cls-22{fill:#698848;}.cls-23{fill:#647b30;}.cls-24{fill:#f2f4ee;}.cls-25{fill:#e9e9e5;}.cls-26{fill:#bdb78e;}.cls-27{fill:#8b8754;}.cls-28{fill:#adb68c;}.cls-29{fill:#f0f1ea;}.cls-30{fill:#b5c497;}.cls-31{fill:#656258;}.cls-32{fill:#707e3a;}.cls-33{fill:#94a76c;}.cls-34{fill:#495c14;}.cls-35{fill:#a6b183;}.cls-36{fill:#7a945b;}.cls-37{fill:#65872e;}.cls-38{fill:#696d34;}.cls-39{fill:#67681f;}.cls-40{fill:#88a063;}.cls-41{fill:#dfe2da;}.cls-42{fill:#6f8140;}.cls-43{fill:#6b795b;}.cls-44{fill:#dad6bf;}.cls-45{fill:#7e9351;}.cls-46{fill:#646636;}.cls-47{fill:#676762;}.cls-48{fill:#5f5c51;}.cls-49{fill:#6b793e;}.cls-50{fill:#807e51;}.cls-51{fill:#b5b19d;}.cls-52{fill:#829c60;}.cls-53{fill:#8da154;}.cls-54{fill:#748324;}.cls-55{fill:#565651;}.cls-56{fill:#7e7667;}.cls-57{fill:#647934;}.cls-58{fill:#c0bb81;}.cls-59{fill:#494840;}.cls-60{fill:#7e8a59;}.cls-61{fill:#d2dab3;}.cls-62{fill:#727f4a;}.cls-63{fill:#4d602c;}.cls-64{fill:#727b47;}.cls-65{fill:#c0c6ae;}.cls-66{fill:#52720c;}.cls-67{fill:#52524a;}.cls-68{fill:#89a24f;}.cls-69{fill:#688054;}.cls-70{fill:#62733f;}.cls-71{fill:#7d7f4d;}.cls-72{fill:#789333;}.cls-73{fill:#4e612f;}.cls-74{fill:#51504a;}.cls-75{fill:#576937;}.cls-76{fill:#5c6e30;}.cls-77{fill:#e7e6e2;}.cls-78{fill:#466315;}.cls-79{fill:#69864d;}.cls-80{fill:#4e6d33;}.cls-81{fill:#859f69;}.cls-82{fill:#7b7364;}.cls-83{fill:#757b37;}.cls-84{fill:#6d782b;}.cls-85{fill:#aea34d;}.cls-86{fill:#899a58;}.cls-87{fill:#cbcfb9;}.cls-88{fill:#456a1a;}.cls-89{fill:#557140;}.cls-90{fill:#4f6f17;}.cls-91{fill:#92a57a;}.cls-92{fill:#546f27;}.cls-93{fill:#68803f;}.cls-94{fill:#405a14;}.cls-95{fill:#607830;}.cls-96{fill:#7b9051;}.cls-97{fill:#e3e6df;}.cls-98{fill:#b7bca5;}.cls-99{fill:#a1b17f;}.cls-100{fill:#a1a963;}.cls-101{fill:#6e894c;}.cls-102{fill:#9cab7d;}.cls-103{fill:#465823;}.cls-104{fill:#374a10;}.cls-105{fill:#657546;}.cls-106{fill:#415616;}.cls-107{fill:#bac0a4;}.cls-108{fill:#878330;}.cls-109{fill:#67862d;}.cls-110{fill:#597b0a;}.cls-111{fill:#739057;}.cls-112{fill:#718e2d;}.cls-113{fill:#3e660b;}.cls-114{fill:#5e6f1b;}.cls-115{fill:#5f681d;}.cls-116{fill:#99a567;}.cls-117{fill:#849c51;}.cls-118{fill:#789552;}.cls-119{fill:#465b24;}.cls-120{fill:#465f1b;}.cls-121{fill:#798664;}.cls-122{fill:#62733c;}.cls-123{fill:#899471;}.cls-124{fill:#66764d;}.cls-125{fill:#6f7e4d;}.cls-126{fill:#423e27;}.cls-127{fill:#b5b479;}.cls-128{fill:#807d49;}.cls-129{fill:#acb07b;}.cls-130{fill:#728c47;}.cls-131{fill:#797727;}.cls-132{fill:#647042;}.cls-133{fill:#646c26;}.cls-134{fill:#485213;}.cls-135{fill:#75804f;}.cls-136{fill:#5f6430;}.cls-137{fill:#808150;}.cls-138{fill:#817f44;}.cls-139{fill:#3e511a;}.cls-140{fill:#8e8a5d;}.cls-141{fill:#799735;}.cls-142{fill:#48641c;}.cls-143{fill:#708941;}.cls-144{fill:#5a5646;}.cls-145{fill:#485f16;}.cls-146{fill:#73713b;}.cls-147{fill:#5f6a1e;}.cls-148{fill:#446711;}.cls-149{fill:#597b32;}.cls-150{fill:#3c5f16;}.cls-151{fill:#637a50;}.cls-152{fill:#516e1d;}.cls-153{fill:#6b8835;}.cls-154{fill:#597525;}.cls-155{fill:#8a9e6c;}.cls-156{fill:#383f10;}.cls-157{fill:#3a5115;}.cls-158{fill:#5c781c;}.cls-159{fill:#647b3f;}.cls-160{fill:#604e28;}.cls-161{fill:#6a6f2b;}.cls-162{fill:#6a7424;}.cls-163{fill:#a0a871;}.cls-164{fill:#455a16;}.cls-165{fill:#535913;}.cls-166{fill:#34490b;}.cls-167{fill:#525711;}.cls-168{fill:#5b660b;}.cls-169{fill:#35481a;}.cls-170{fill:#606b32;}.cls-171{fill:#6f7a54;}.cls-172{fill:#596a3f;}.cls-173{fill:#4c4b19;}.cls-174{fill:#4a5209;}.cls-175{fill:#728c42;}.cls-176{fill:#738b45;}.cls-177{fill:#596b2f;}.cls-178{fill:#7e9558;}.cls-179{fill:#4d6f12;}.cls-180{fill:#6d6a24;}.cls-181{fill:#627d35;}.cls-182{fill:#667a3d;}.cls-183{fill:#6e7925;}.cls-184{fill:#495c1c;}.cls-185{fill:#444c12;}.cls-186{fill:#596d2c;}.cls-187{fill:#506c1f;}.cls-188{fill:#4f5922;}.cls-189{fill:#7f7a62;}.cls-190{fill:#4b6c0f;}.cls-191{fill:#4e570e;}.cls-192{fill:#44380e;}.cls-193{fill:#5e5743;}.cls-194{fill:#2c2a11;}.cls-195{fill:#2c2b14;}.cls-196{fill:#627831;}</style></defs><title>favicon</title><path class="cls-1" d="M961,587.39a.84.84,0,0,1-.31.56h-3c-.75-1.29-3.77-.31-3.07-3.07v0c1.88.12,1.72-3.16,4-2.39C960.33,583.71,959.7,586,961,587.39Z" transform="translate(-926.56 -492.05)"/><path class="cls-2" d="M983.2,492.05l3.86,2.09c0,.16,0,.32-.08.48a2.83,2.83,0,0,1-1.36,1.37,1.92,1.92,0,0,1-1,0,6.3,6.3,0,0,1-1.31-.69c-1-1-3.21-.23-3.33-2.4.37-.68,1.27-.31,1.7-.87Z" transform="translate(-926.56 -492.05)"/><path class="cls-3" d="M954.66,584.88c.29,1.77,2.86,1.24,3.07,3.07h-2.24C954.81,587,953.37,586.32,954.66,584.88Z" transform="translate(-926.56 -492.05)"/><path class="cls-4" d="M975.69,493.36l-.73-1.31h3.74a1.11,1.11,0,0,1,.31,1.05,1.76,1.76,0,0,1-1.29,1.06A1.79,1.79,0,0,1,975.69,493.36Z" transform="translate(-926.56 -492.05)"/><path class="cls-5" d="M978.75,492.86l0-.81h3c-.24.75-.92.68-1.49.8A1,1,0,0,1,978.75,492.86Z" transform="translate(-926.56 -492.05)"/><path class="cls-6" d="M955.51,574.46c-.19-11.45.4-22.89.86-34.33a16,16,0,0,1,.51-2.53,2.66,2.66,0,0,1,1,2.09c.07.77.06,1.54.07,2.3.14,3.94,1,7.86.39,11.82-.17,2.48,1.37,5-.27,7.47-1.49,1.79-.43,3.83-.56,5.75a9.22,9.22,0,0,0,.31,4,3.33,3.33,0,0,1-1.39,3.59A.86.86,0,0,1,955.51,574.46Z" transform="translate(-926.56 -492.05)"/><path class="cls-7" d="M957.08,532.52l-.23-5c-2.38,1.18-4.67,1.34-5.46,4.56s-1.95,3.42-3.95,1.85a2.43,2.43,0,0,1,.67-1.2c.83-1.13.37-2.55.83-3.76a6.67,6.67,0,0,1,.94-1.84,3,3,0,0,1,1.79-1,5.49,5.49,0,0,0,3.25-1.42,2,2,0,0,1,2.93-.39c1.39,2.59,1.11,5.26.32,7.94A.8.8,0,0,1,957.08,532.52Z" transform="translate(-926.56 -492.05)"/><path class="cls-8" d="M930,515.14c1.19-3.14,4.27-2.83,6.72-3.66a3.12,3.12,0,0,1,.77,2.89,3.83,3.83,0,0,1-1.23,2.11c-1.73,1.39-3.8,1-5.77,1a2.69,2.69,0,0,1-1.09-.45C928.65,516.14,929.58,515.72,930,515.14Z" transform="translate(-926.56 -492.05)"/><path class="cls-9" d="M952.35,497.15c3.33-.81,6.73-1.22,9.77.61a7,7,0,0,0,5.27.9.89.89,0,0,1,0,1.07,4.81,4.81,0,0,1-4.24,1.37,6.79,6.79,0,0,1-1.11-.2c-1.36-.54-2.95-.21-4.2-1.12-.17-.18-.42-.44-.35-.59.44-.88,1-1.69-.76-1.06a6.9,6.9,0,0,1-2.83.4A1.85,1.85,0,0,1,952.35,497.15Z" transform="translate(-926.56 -492.05)"/><path class="cls-10" d="M948,504.8c-.44-.2-1.1,0-1.27-.69-.47-.9-2.92-.24-1.83-2.36a4.52,4.52,0,0,1,2.27-1.15,3.05,3.05,0,0,1,1.53,0,28.68,28.68,0,0,0,3.83,2.25,3.81,3.81,0,0,1,1.35,1.52,2.63,2.63,0,0,1,.29,2,1.69,1.69,0,0,1-1.79.84C951,506.33,949.34,505.83,948,504.8Z" transform="translate(-926.56 -492.05)"/><path class="cls-11" d="M930.05,516.79c2-.08,4.08.42,5.92-.8,1.43-.75,2.86-1.53,4.51-.57a3.09,3.09,0,0,1,1,1.2,1.06,1.06,0,0,1-.23,1c-3.4.3-6.79.67-10.19.86-1.06.06-2.31,1.08-3.24-.32C928.14,517,929.37,517.33,930.05,516.79Z" transform="translate(-926.56 -492.05)"/><path class="cls-12" d="M952.35,497.15l1.59,1c.77.81,1.75,1.62.14,2.57a5.25,5.25,0,0,1-4.25-1.86,21.47,21.47,0,0,0-2.27-1.34c-.32-.21-.62-.44-.93-.65-1.81-1.37-4.52-.05-6.37-2.24,2.22-1.08,4.34-.64,6.44-.4Z" transform="translate(-926.56 -492.05)"/><path class="cls-13" d="M955.51,574.46h.75c2,2.07,2,2.37-.43,6.71a1.32,1.32,0,0,1,1.92-.94,1.94,1.94,0,0,1,.69,2.45c-1.52.31-1.5,3.22-3.78,2.23C954.94,581.42,955.23,577.94,955.51,574.46Z" transform="translate(-926.56 -492.05)"/><path class="cls-14" d="M943.65,530.36c-1.66.77-2.82,2.4-4.72,2.76-.79-1.3.55-2.08.75-3.13a3,3,0,0,1,.65-1.32c1.92-1,2.07-4,4.68-4.23a2.16,2.16,0,0,1,1.52.39c.57,1.07.14,2.09-.14,3.11a1.7,1.7,0,0,1-1,1C944.22,528.69,944,529.6,943.65,530.36Z" transform="translate(-926.56 -492.05)"/><path class="cls-15" d="M936,497.24c1-.72,2.54-.8,2.9-2.32,1.37.27,2.63.89,4.17.6,1-.19,2.47-.73,3,1a1.58,1.58,0,0,1-.91,1.34c-1.55.72-3.35.1-4.9.9a8.42,8.42,0,0,1-1.58.67,3.31,3.31,0,0,1-2.83-.48A1.4,1.4,0,0,1,936,497.24Z" transform="translate(-926.56 -492.05)"/><path class="cls-16" d="M945,507.85a4.9,4.9,0,0,0,3-1.12,3.73,3.73,0,0,1,4.07.41,3,3,0,0,0,1.56.21,1.39,1.39,0,0,1,.75.7,1.53,1.53,0,0,1-.35,1.48,3,3,0,0,1-2,.46,4.34,4.34,0,0,1-1-.22,1.73,1.73,0,0,0-2.56.35,2.92,2.92,0,0,1-3.67-.05A1.84,1.84,0,0,1,945,507.85Z" transform="translate(-926.56 -492.05)"/><path class="cls-17" d="M945,510a6.07,6.07,0,0,0,3.73-.75c.71-.31.89.13,1,.69a7.12,7.12,0,0,1-1.77,3.11,6.5,6.5,0,0,1-3.19-.06,10.12,10.12,0,0,1-1.09-.25c-1.26-.6-3.32-.51-2.54-2.9l.8-.71C943,509.37,944.17,509.09,945,510Z" transform="translate(-926.56 -492.05)"/><path class="cls-18" d="M945.73,496.7c-.82-1.37-2.15-1-3.26-.76a3.23,3.23,0,0,1-3.57-1c2.38-2.6,5.11-1.46,7.8-.74l-5.93.29c2.6,1.16,5.48-.32,7.24,2.06A1.7,1.7,0,0,1,945.73,496.7Z" transform="translate(-926.56 -492.05)"/><path class="cls-19" d="M941.14,509.87c-.14,2.29,2.53,1.09,3.1,2.5.18,1.31-1.07,1.47-1.7,2.13a2,2,0,0,1-.92.31,6.85,6.85,0,0,1-2.92-1.59,4.8,4.8,0,0,1-1.42-1.83C938.37,510.37,939.8,510.23,941.14,509.87Z" transform="translate(-926.56 -492.05)"/><path class="cls-20" d="M944.82,524.93c-2.13.57-1.65,3.9-4.22,4a.9.9,0,0,1-.33-.92c.26-1.24,1.41-2,1.63-3.3s1.63-1.76,2.27-2.78a.79.79,0,0,1,1,0,2.47,2.47,0,0,1,.49,1.6A1.68,1.68,0,0,1,944.82,524.93Z" transform="translate(-926.56 -492.05)"/><path class="cls-21" d="M936,498.79l3,.09a4.37,4.37,0,0,1,2.57.32c1,.58,1.9,1.22,1.37,2.61a.54.54,0,0,1-.92-.08c-2.51-1.89-5.43-1.35-8.26-1.43a.78.78,0,0,1-.22-.64c0-.23.08-.35.13-.35C934.33,498.57,935,498,936,498.79Z" transform="translate(-926.56 -492.05)"/><path class="cls-22" d="M969.65,497.26l4.47-2.46c.1.11.2.22.31.32.09.6-.5,1.3.25,1.81a2.54,2.54,0,0,1-.09,1.86,2.39,2.39,0,0,1-1.05,1,4.64,4.64,0,0,1-2.39-.31,3.44,3.44,0,0,1-.84-.46A2.51,2.51,0,0,1,969.65,497.26Z" transform="translate(-926.56 -492.05)"/><path class="cls-23" d="M942.08,518.21a2.4,2.4,0,0,1,.07-.65,3,3,0,0,1,.43-.84c.63-.76,1.34-1.36,2.43-1,1.48.82,3.68-2.49,4.74.8a1.83,1.83,0,0,1-.83,1.21c-1.37.53-2.57,1.52-4.11,1.64A6.13,6.13,0,0,1,942.08,518.21Z" transform="translate(-926.56 -492.05)"/><path class="cls-24" d="M952.47,507.58l-4.5-.85,0-1.93c2.1-.34,3.67.31,4.44,2.41Z" transform="translate(-926.56 -492.05)"/><path class="cls-25" d="M943.65,530.36c-.63-1-.76-2.13.41-2.75.65-.33.89.54,1.06,1.11,1.61,1.83.4,3.94.58,5.91-1.19,1.18-1.32.24-1.45-.72C944.09,532.72,944.63,531.41,943.65,530.36Z" transform="translate(-926.56 -492.05)"/><path class="cls-26" d="M945.7,534.63c-1.36-1.86-.61-3.92-.58-5.91l.69-.8a1.54,1.54,0,0,1,1.76.82,2.28,2.28,0,0,1,.09,1.48,10.57,10.57,0,0,0-1.14,3.06Z" transform="translate(-926.56 -492.05)"/><path class="cls-27" d="M940.45,530.23c.29,1.38-1.56,1.64-1.52,2.89-.91.62-1.91,1.09-1.7-.69.15-1.14.32-2.48,1.7-3A1.1,1.1,0,0,0,940.45,530.23Z" transform="translate(-926.56 -492.05)"/><path class="cls-28" d="M942.08,518.21,945,519c.6-.37.9,0,1.15.48a2.63,2.63,0,0,1-.37,1.93,2.13,2.13,0,0,1-.71.69l-.85-.14C945.08,519.78,942,519.86,942.08,518.21Z" transform="translate(-926.56 -492.05)"/><path class="cls-29" d="M942,501.73l.81,0a1.55,1.55,0,0,1,1.8-.24l.34.35c.11,1.25,1,1.24,2,1.54,1.13.36.34.65-.25.76C944.55,504.51,943.45,502.81,942,501.73Z" transform="translate(-926.56 -492.05)"/><path class="cls-30" d="M933.71,499.45l.06.85c-.56.46-.27,2.28-1.78,1.18-.5-.36-1.75,0-1.44-1.1a1.4,1.4,0,0,1,2-.85A.8.8,0,0,1,933.71,499.45Z" transform="translate(-926.56 -492.05)"/><path class="cls-31" d="M957.08,532.52a2.09,2.09,0,0,0,.57-.18c1.39,2.64,2.19,5.24-.51,7.61-.09-.78-.17-1.57-.26-2.35C956.94,535.9,957,534.21,957.08,532.52Z" transform="translate(-926.56 -492.05)"/><path class="cls-32" d="M937.28,511.39c1,.13,1.69.52,1.73,1.63a1.89,1.89,0,0,1-.83,1.81,1.24,1.24,0,0,1-1.42-.28l0-3.07A.88.88,0,0,1,937.28,511.39Z" transform="translate(-926.56 -492.05)"/><path class="cls-33" d="M946.52,533.28c-1.45-1.41-.51-2.25.72-3a2.59,2.59,0,0,1,1.19,1.61,1.35,1.35,0,0,1-.45,1.38l-.54.66Z" transform="translate(-926.56 -492.05)"/><path class="cls-34" d="M945,510c-1.08-.1-2.31.35-3.07-.87.76-1.06,2-.88,3.08-1.31C945,508.58,945,509.31,945,510Z" transform="translate(-926.56 -492.05)"/><path class="cls-35" d="M930.05,516.79l-2.19,1.35c-1.08-.9-2.29-1.8,0-2.67a9.31,9.31,0,0,1,1.29,1.22Z" transform="translate(-926.56 -492.05)"/><path class="cls-36" d="M933.71,499.45l-1.12.08c.47-1.75,1.89-2.09,3.41-2.29v1.55Z" transform="translate(-926.56 -492.05)"/><path class="cls-37" d="M969.65,497.26a1.59,1.59,0,0,1,.82,1.52,2.33,2.33,0,0,1-2.62,1.09l-.4-.32-.06-.89Z" transform="translate(-926.56 -492.05)"/><path class="cls-38" d="M941.9,524.7a3.73,3.73,0,0,1-1.43,3.35.48.48,0,0,1-.75,0A5.77,5.77,0,0,1,941.9,524.7Z" transform="translate(-926.56 -492.05)"/><path class="cls-39" d="M939.72,528l.75,0c0,.29.09.58.13.87l-.15,1.31c-1,.52-1.4.14-1.52-.84Z" transform="translate(-926.56 -492.05)"/><path class="cls-40" d="M975.69,493.36l2.28.27a.74.74,0,0,1,0,.89,3.24,3.24,0,0,1-1.33.58,5.4,5.4,0,0,1-2.36.25,2.59,2.59,0,0,1-.13-.55C974.26,493.9,974.94,493.59,975.69,493.36Z" transform="translate(-926.56 -492.05)"/><path class="cls-41" d="M942.74,517.5l-.29.09-.3,0-.86,0,0-.78a2.84,2.84,0,0,1,.68-2.38h0C944,515,943.18,516.3,942.74,517.5Z" transform="translate(-926.56 -492.05)"/><path class="cls-42" d="M929.17,516.69a1.11,1.11,0,0,1-1.29-1.22l2.13-.33Z" transform="translate(-926.56 -492.05)"/><path class="cls-43" d="M972,508.55c5.31-.07,10.6,0,15.58,2.25a1.92,1.92,0,0,0-.28,1.64c.13.77,1,1.42.36,2.3-.57.59-2.3-.75-2,1.23a2.19,2.19,0,0,1-2.06.15,3.9,3.9,0,0,1-2.16-1.44c-.62-1-.36-2.22-1.1-3.14-.82-.7-1.47-.15-2.11.31a5.91,5.91,0,0,1-1.8.88,3,3,0,0,1-2.35-.64,8.23,8.23,0,0,0-2.95-1.53,1.29,1.29,0,0,1-.78-1.16A1.63,1.63,0,0,1,972,508.55Z" transform="translate(-926.56 -492.05)"/><path class="cls-44" d="M969,539.32c-.28,1.22-1.5,2-2,1-1.13-2.29-4.26-3.22-4.13-6.26-.46-1.32-2.19-1.45-2.62-2.79a7.18,7.18,0,0,1-.46-.92,3.65,3.65,0,0,1,.36-4,5.18,5.18,0,0,1,1.19-1.1c1.38-.72,2-.24,2.1,1.25-.76,2.76,1.68,4.64,2,7.11C966.64,535.51,967.44,537.66,969,539.32Z" transform="translate(-926.56 -492.05)"/><path class="cls-45" d="M973.47,528.81c0,2.36,0,4.72,0,7.07,0,3.08-1.18,3.71-3.69,2-2.23,1.59-2.63.27-2.66-1.66.65-1.4,1.27-2.87,3.28-2.44a4.26,4.26,0,0,1,1.08,1.91c.14-2.8-1.26-5.46.86-7.63a1.23,1.23,0,0,1,1-.19.67.67,0,0,1,.23.62C973.58,528.7,973.53,528.81,973.47,528.81Z" transform="translate(-926.56 -492.05)"/><path class="cls-46" d="M975.68,521.27a2.57,2.57,0,0,1,.2.72,7.73,7.73,0,0,1-1.62,2.56,2.36,2.36,0,0,1-2,.2,6.68,6.68,0,0,1-1.95-1.59c-.45-.49-.87-1-1.31-1.51a2.4,2.4,0,0,1-.58-1.87,1.88,1.88,0,0,1,.49-.88,2.81,2.81,0,0,0,2.89-1.53,2.1,2.1,0,0,1,1-.28C975.25,517.47,974.62,520,975.68,521.27Z" transform="translate(-926.56 -492.05)"/><path class="cls-47" d="M958.44,582.68l-.71-2.21c-.8-1.75-.05-1.93,1.4-1.38a4,4,0,0,1,1.1,1c.47.6.62,1.43,1.28,1.89.43,1.86,1.84,3.81-.47,5.43-1.3-.22-2.92-.11-2-2.31C959.45,584.2,958.77,583.45,958.44,582.68Z" transform="translate(-926.56 -492.05)"/><path class="cls-48" d="M957.73,561c1-2.26-.72-4.5,0-6.75.82-3.07.13-6.21.43-9.31a.66.66,0,0,1,1-.44l.78,1.52c-.68,5.77-.11,11.55-.3,17.32,0,.66,0,1.31-.81,1.55C957.3,563.88,957.24,562.5,957.73,561Z" transform="translate(-926.56 -492.05)"/><path class="cls-49" d="M983.16,520.6c-2.26,0-3.87-1.85-6-2.17a2.22,2.22,0,0,1-.57-1.49,3.17,3.17,0,0,1,.3-1.05,3.8,3.8,0,0,1,2.7-1.64c1.22.19,1.58,1.25,2.13,2.13.45,1.1,1.87,1.52,2,2.83A1.58,1.58,0,0,1,983.16,520.6Z" transform="translate(-926.56 -492.05)"/><path class="cls-50" d="M974.19,524.27c0-1.18.14-2.25,1.69-2.28l2.28,2.86a14.63,14.63,0,0,1-.82,3.38c-.69.69-1.18,1.72-2.45,1.38l-1.42-.8V528C973.69,526.75,973.19,525.36,974.19,524.27Z" transform="translate(-926.56 -492.05)"/><path class="cls-51" d="M974.89,529.61c.82-.41.9-1.91,2.26-1.51.8.46,1.19,1.35,1.92,1.89a3.73,3.73,0,0,1,.86,1.15c.09,1.48,1.55,2,2.21,3.07a1.84,1.84,0,0,1-.38,2A15.91,15.91,0,0,1,974.89,529.61Z" transform="translate(-926.56 -492.05)"/><path class="cls-52" d="M984.7,495.79l.86-.07c1.29-.84,2.47-.41,3.63.28s1.46,2.36,2.22,3.53c-.71,1.74-.71,1.74-4.47.05a10.44,10.44,0,0,1-2.45-2.89c0-.16,0-.32,0-.48S984.61,495.93,984.7,495.79Z" transform="translate(-926.56 -492.05)"/><path class="cls-53" d="M984.07,498.94c.11,3-2.4,1-3.53,1.78a14.1,14.1,0,0,1-7.08,2.51c-.23-2,1.82-2.11,2.71-3.17a7.41,7.41,0,0,1,1.31-.68c1-.38,1.92-1.19,3.13-1.08a23.79,23.79,0,0,0,3.16.29Z" transform="translate(-926.56 -492.05)"/><path class="cls-54" d="M983.16,520.6l0-1.59c1.06-1.76,2.48-.76,3.8-.51a5.72,5.72,0,0,0,2.06.66c.57.37,1.5.57.75,1.57C987.54,523.05,985.36,521.29,983.16,520.6Z" transform="translate(-926.56 -492.05)"/><path class="cls-55" d="M960,580.46l-.76-.76c-1.69-3.16-.75-6.46-.54-9.72a2.79,2.79,0,0,1,1.41-1.74c.89,2.43.73,5,.76,7.48a1.81,1.81,0,0,1,.09,1.08C960.46,578,961.15,579.46,960,580.46Z" transform="translate(-926.56 -492.05)"/><path class="cls-56" d="M959.23,564c0-4.82,0-9.64,0-14.46,0-1.19-.37-2.5.63-3.53q0,9,0,18C959.64,564.34,959.43,564.33,959.23,564Z" transform="translate(-926.56 -492.05)"/><path class="cls-57" d="M987,519c-1.25.23-2.5-.84-3.75,0-.53-1-2.44-.61-2.2-2.3.87-.54,1.91-.69,2.76-1.27l1.84.53a2.85,2.85,0,0,1,1.85,1.59C987.12,518,987.32,518.61,987,519Z" transform="translate(-926.56 -492.05)"/><path class="cls-58" d="M967.54,536.22c0,1.66.65,2.3,2.28,1.65l-.78,1.45c-.7.17-1.87.63-1.92-.27-.11-2.17-2.09-3.22-2.58-5.08a1.64,1.64,0,0,1,1.86-1.06C968,533.6,968.37,534.7,967.54,536.22Z" transform="translate(-926.56 -492.05)"/><path class="cls-59" d="M959.11,544.48l-.6,0a2.33,2.33,0,0,1-.65-1,32.78,32.78,0,0,1,.64-7.91c.7-.34,1.16,0,1.57.53a1.1,1.1,0,0,1,0,1.17C960.52,539.73,959.55,542.07,959.11,544.48Z" transform="translate(-926.56 -492.05)"/><path class="cls-60" d="M977.21,516.78c0,.55-.05,1.1-.07,1.65a2.6,2.6,0,0,0-1.46,2.84c-1.83-.59-1.15-3.15-3-3.76a.77.77,0,0,1,.25-1.11A3.57,3.57,0,0,1,977.21,516.78Z" transform="translate(-926.56 -492.05)"/><path class="cls-61" d="M972,508.55l-1.54.63c-.61.37-.86-.05-1.1-.5a2.54,2.54,0,0,1,0-1,11.17,11.17,0,0,1,1.37-2.66,2.53,2.53,0,0,1,2.17-1C975.17,506,971.65,506.9,972,508.55Z" transform="translate(-926.56 -492.05)"/><path class="cls-62" d="M987.63,514.74c-.22-1-1.62-1.29-1.38-2.52,1.3-.79,2.38.2,3.55.43a14.82,14.82,0,0,1,2.58,2.61c-.92,2.44-2.57.52-3.88.66Z" transform="translate(-926.56 -492.05)"/><path class="cls-63" d="M978.68,530.36c-1.75.09-1.33-1.3-1.53-2.26a2.41,2.41,0,0,1,1-3.25l1.38,1.45a6.86,6.86,0,0,1,.25,3.05A1.57,1.57,0,0,1,978.68,530.36Z" transform="translate(-926.56 -492.05)"/><path class="cls-64" d="M981.76,536.18l-.12-2.1a2.12,2.12,0,0,1-.16-2.29.76.76,0,0,1,1.07-.08,4.78,4.78,0,0,1,1.27,4C983.68,537.59,982.75,537.34,981.76,536.18Z" transform="translate(-926.56 -492.05)"/><path class="cls-65" d="M988.5,515.92c1-1.26,2.67,1,3.57-.7-.2-.37-.09-.62.3-.77,1.25.21,2.29.93,1.89,2.19-.47,1.45-1.85.88-2.83.46S989.1,517.22,988.5,515.92Z" transform="translate(-926.56 -492.05)"/><path class="cls-66" d="M972.89,504l-1.75,1.53a1.14,1.14,0,0,1-1.58,0c-.9-1.17-1.47-2.4-.73-3.88a2.81,2.81,0,0,1,3.38.19,1.3,1.3,0,0,1,.57,1.55A.9.9,0,0,0,972.89,504Z" transform="translate(-926.56 -492.05)"/><path class="cls-67" d="M959.23,564h.62l.24,4.24c-.12.66-.2,1.36-.88,1.74-2-.14-1.38-1.77-1.68-2.88a2.09,2.09,0,0,1,1-2.36Z" transform="translate(-926.56 -492.05)"/><path class="cls-68" d="M984.65,496.53c1.23.66,2.25,1.48,2.29,3.05l-2.87-.64a1.8,1.8,0,0,0-.29-.26C982.53,497.35,982.91,496.66,984.65,496.53Z" transform="translate(-926.56 -492.05)"/><path class="cls-69" d="M991.41,499.53c-1.9-.12-1.36-2.08-2.24-3a1.39,1.39,0,0,1,.44-.78l.45-.14C990.84,496.82,993.28,497.42,991.41,499.53Z" transform="translate(-926.56 -492.05)"/><path class="cls-70" d="M989.87,513.05l-3.62-.83a1.23,1.23,0,0,1,1.3-1.42c1.11,1.08,3.13.55,3.91,2.22A1.15,1.15,0,0,1,989.87,513.05Z" transform="translate(-926.56 -492.05)"/><path class="cls-71" d="M982.55,531.71l-.83,0a1.74,1.74,0,0,1-2.33-.72l-.71-.68.74-.91c.49-.27,1.05-.38,1.53-.66C982,529.46,982.22,530.63,982.55,531.71Z" transform="translate(-926.56 -492.05)"/><path class="cls-72" d="M972.78,503.4l-.85-.86a.87.87,0,0,1-.23-.63c0-.23,0-.35.09-.35a3.06,3.06,0,0,1,1.72-1.23c1-.28,2-1,3,0-.14,1.89-2.67,1.24-3,2.89A2.34,2.34,0,0,1,972.78,503.4Z" transform="translate(-926.56 -492.05)"/><path class="cls-73" d="M989.81,520.73c-.11-.81-.74-.9-1.38-1a.9.9,0,0,1,0-1.39c1.59,0,2.17,1.3,2.82,2.43.16.28.12.84-.37.74S990.17,521,989.81,520.73Z" transform="translate(-926.56 -492.05)"/><path class="cls-48" d="M960.09,537.21l-.34-1.11c-.54-2.07-1.88-4.25.85-5.85l.25.8a2.14,2.14,0,0,1-.08,2.21C960.54,534.58,960.32,535.89,960.09,537.21Z" transform="translate(-926.56 -492.05)"/><path class="cls-74" d="M960,580.46c.16-1.24-.41-2.6.57-3.72,1.29,1.3-.06,3.1.85,4.46l.11.76A1.37,1.37,0,0,1,960,580.46Z" transform="translate(-926.56 -492.05)"/><path class="cls-75" d="M981,528.79c0,1.37-.74,1.1-1.53.66-.7-1.08.05-2.1.12-3.15Z" transform="translate(-926.56 -492.05)"/><path class="cls-47" d="M961.4,581.2c-1.31-1.29-.4-3-.85-4.46l.3-1C961.62,577.49,961.34,579.36,961.4,581.2Z" transform="translate(-926.56 -492.05)"/><path class="cls-76" d="M989.87,513.05l1.59,0c.72.21.79.83.91,1.43l-.3.77C991.11,514.73,990,514.42,989.87,513.05Z" transform="translate(-926.56 -492.05)"/><path class="cls-77" d="M960.77,533.26c0-.73.05-1.47.08-2.21.64,1,2.09,1.51,2,3Z" transform="translate(-926.56 -492.05)"/><path class="cls-78" d="M988.44,518.35c0,.47,0,.93,0,1.39A1.47,1.47,0,0,1,987,519c-.18-.61-.87-1.4.5-1.47Z" transform="translate(-926.56 -492.05)"/><path class="cls-2" d="M987.06,494.14a3.4,3.4,0,0,1,3,1.5,2.6,2.6,0,0,1-.3.36,2.46,2.46,0,0,1-2.94-1.48Z" transform="translate(-926.56 -492.05)"/><path class="cls-79" d="M977.9,494.28c0-.21,0-.43.07-.65l.78-.77h1.46c.51,2,3.36-.09,3.72,2.16a1.46,1.46,0,0,1-.93,1.19,3.45,3.45,0,0,1-1.06.11C980.47,495.9,978.69,496.08,977.9,494.28Z" transform="translate(-926.56 -492.05)"/><path class="cls-80" d="M986.82,494.52l2.94,1.48-.59.56-3.61-.84A1.48,1.48,0,0,1,986.82,494.52Z" transform="translate(-926.56 -492.05)"/><path class="cls-81" d="M983.11,495.81l.82-.8.77.78,0,0A1.13,1.13,0,0,1,983.11,495.81Z" transform="translate(-926.56 -492.05)"/><path class="cls-82" d="M957.76,567c.48,1,1,2,1.45,3q0,4.86,0,9.72c-.84-.41-1.52-.5-1.49.77-1.11-.12-1.31.9-1.93,1.65-1.24-2.74,2.91-5,.46-7.66,2.25-2.3-1.2-5.16.72-7.49A.45.45,0,0,1,957.76,567Z" transform="translate(-926.56 -492.05)"/><path class="cls-48" d="M959.22,535.49c-1.57,2.63-.34,5.52-.74,8.26-1.47.45-.86-1-1.34-1.47V540c1.18-2.47.41-5.07.51-7.61-.42-2.7,1.12-5.57-.69-8.15a.65.65,0,0,1,.35-1,1.39,1.39,0,0,1,1.59.53A42,42,0,0,1,959.22,535.49Z" transform="translate(-926.56 -492.05)"/><path class="cls-31" d="M957.14,542.28l1.34,1.47,0,.71c-.5,3.24.9,6.63-.8,9.77Z" transform="translate(-926.56 -492.05)"/><path class="cls-56" d="M957.76,567H957c-.08-2-2.08-4.32.75-6a6.72,6.72,0,0,1,.78,3.76Z" transform="translate(-926.56 -492.05)"/><path class="cls-83" d="M957.07,523.49c0,.23-.07.47-.11.7-1.74.81-2.6,3.55-5.24,2.4a2.17,2.17,0,0,1-.53-.9,2.3,2.3,0,0,1,1-2.24c.84-.15,1.77-.12,2.29-1,.92-.73,1.82-.87,2.66.11A.94.94,0,0,1,957.07,523.49Z" transform="translate(-926.56 -492.05)"/><path class="cls-84" d="M951.71,525.71c0,.29,0,.59,0,.88l-1.35.82a1.9,1.9,0,0,1-2.58-.63,2.35,2.35,0,0,1-.25-1.68,2.5,2.5,0,0,1,1.82-1.92c.65.05,1.4.51,1.15,1C949.73,525.77,951.23,525.29,951.71,525.71Z" transform="translate(-926.56 -492.05)"/><path class="cls-85" d="M948,533.23l0-1.47c.07-1-.18-2.09.54-3a.81.81,0,0,1,1,0c0,1.25,0,2.49,0,3.74S948.68,533.43,948,533.23Z" transform="translate(-926.56 -492.05)"/><path class="cls-86" d="M949.49,528.8h-.71a.7.7,0,0,1-1-.15,1.64,1.64,0,0,1,.3-2.19l2.32.95A1.59,1.59,0,0,1,949.49,528.8Z" transform="translate(-926.56 -492.05)"/><path class="cls-87" d="M936.76,514.55l1.41-.08c1.57-.62,2.93-1,2.3,1.59-1.48-.91-3,.41-4.5-.07Z" transform="translate(-926.56 -492.05)"/><path class="cls-88" d="M969,501.8l.72,3.71-.4.16c-.74-.81-1.19,0-1.75.32a2.38,2.38,0,0,1-.92,0,4.15,4.15,0,0,1-1.89-1.41,1.93,1.93,0,0,1-.52-1.26,1.14,1.14,0,0,0-.71-1.36c-.45-.46-.87-.92-.52-1.63l4.46-.81,0,.1C968.25,500.19,969.53,500.36,969,501.8Z" transform="translate(-926.56 -492.05)"/><path class="cls-89" d="M954,500.37c.84-.79-.23-1.51-.07-2.27.81-.25,1.6-.55,2.42-.72,2.3-.48,2,.75,1.4,2.18-.1.13-.2.25-.29.38a6.81,6.81,0,0,0-1.36,1.32,1.77,1.77,0,0,1-1.17.76,1.63,1.63,0,0,1-1.13-.8A.77.77,0,0,1,954,500.37Z" transform="translate(-926.56 -492.05)"/><path class="cls-90" d="M964.48,503.29l.74.75c.31,1.1-.48,1.09-1.18,1.16-1.47-.4-2.09-1.72-3-2.72a2,2,0,0,1-.52-1.39,1.41,1.41,0,0,1,1.61-.91l.87.18c.25.48.5,1,.74,1.44A1.62,1.62,0,0,1,964.48,503.29Z" transform="translate(-926.56 -492.05)"/><path class="cls-91" d="M962.12,500.18l-1.37.87c-1.18.93-2.19.6-3.1-.43a.93.93,0,0,1,.06-1.1l0,0C959.22,499.75,960.8,499,962.12,500.18Z" transform="translate(-926.56 -492.05)"/><path class="cls-92" d="M954,500.37c0,.22,0,.45,0,.68.3,1.36-.66,1.9-1.59,2.47a4.45,4.45,0,0,1-3.76-2.42c-.25-1.49.64-2.37,1.7-3.15C951.1,499.49,952.76,499.62,954,500.37Z" transform="translate(-926.56 -492.05)"/><path class="cls-93" d="M950.38,498c.15,1.43-.81,2.27-1.7,3.15l-1.41-.09-.42-.2c-.75-.78-1.76-1.35-2.06-2.49a.77.77,0,0,1,.59-.64,10,10,0,0,1,2.83-.47A2.23,2.23,0,0,1,950.38,498Z" transform="translate(-926.56 -492.05)"/><path class="cls-94" d="M953.86,506.4l-.54-1.6a1.78,1.78,0,0,1,.95-1.22,5.17,5.17,0,0,1,4,.8,1.24,1.24,0,0,1,.42.91c-.2,1.29-2.2.82-2.24,2.28a1.22,1.22,0,0,1-.65.67,1.75,1.75,0,0,1-1.83-.42h0A1,1,0,0,1,953.86,506.4Z" transform="translate(-926.56 -492.05)"/><path class="cls-95" d="M954,504c-.23.25-.45.51-.67.76-.3-.42-.59-.85-.88-1.28-.12-1.24,1-1.69,1.59-2.47l.71.72a.82.82,0,0,1,.31.8A3.3,3.3,0,0,1,954,504Z" transform="translate(-926.56 -492.05)"/><path class="cls-96" d="M947.27,501c-.54.91-1.49.65-2.29.8h0c-.25-.66-3.08-.41-.71-2,1.29-.33,2.14.43,3,1.21Z" transform="translate(-926.56 -492.05)"/><path class="cls-97" d="M953.86,506.4l.15,1.42-1.54-.24,0-.37Z" transform="translate(-926.56 -492.05)"/><path class="cls-98" d="M940.47,516.06c0-1.65-1.22-1.5-2.3-1.59L939,513c1.21,0,2,.9,2.93,1.42a2.38,2.38,0,0,1-.68,2.38Z" transform="translate(-926.56 -492.05)"/><path class="cls-99" d="M948.21,497.21c-.83,1.2-2.11.73-3.22.86a.48.48,0,0,1-.19-.51c.05-.18.11-.27.17-.27l.76-.59,2.28-.17A3.31,3.31,0,0,0,948.21,497.21Z" transform="translate(-926.56 -492.05)"/><path class="cls-100" d="M948,526.45l0,2.31a.41.41,0,0,1-.69,0l-1.49-.84a4.56,4.56,0,0,1,.72-2.89,1,1,0,0,1,.71-.39,1.07,1.07,0,0,1,.72.38Z" transform="translate(-926.56 -492.05)"/><path class="cls-26" d="M947.24,525l-.71,0-1.71-.1c.1-.43.19-.86.28-1.29a1.71,1.71,0,0,1,2.55-.3C948.47,524,947.85,524.57,947.24,525Z" transform="translate(-926.56 -492.05)"/><path class="cls-101" d="M945,497.29c0,.26,0,.52,0,.78l0,0a3.36,3.36,0,0,1-1.59,1.19,2.73,2.73,0,0,1-1.5,0c-.68-.47-1.67-.38-2.17-1.18C941.33,496.63,943.24,497.6,945,497.29Z" transform="translate(-926.56 -492.05)"/><path class="cls-102" d="M939.76,498c.81.07,1.7-.15,2.31.66.19.71,0,1.06-.8.83-.8,0-1.67.13-2.26-.65Z" transform="translate(-926.56 -492.05)"/><path class="cls-103" d="M951.75,509.28l2.08,0a1.25,1.25,0,0,1,.57,1,1.93,1.93,0,0,1-.4,1.08,3.56,3.56,0,0,1-4.32.58C949,509.9,950.91,510,951.75,509.28Z" transform="translate(-926.56 -492.05)"/><path class="cls-104" d="M951.75,509.28l-2.23,2.28c.26.91-.28,1.32-1,1.61L948,513c-.05-1.29.13-2.46,1.52-3,.37-.51.62-1.25,1.49-.75Z" transform="translate(-926.56 -492.05)"/><path class="cls-105" d="M954,510c-.06-.27-.13-.53-.19-.79l.18-1.42a2.77,2.77,0,0,1,2.17.05,1.68,1.68,0,0,1,.18,2.31A1.82,1.82,0,0,1,954,510Z" transform="translate(-926.56 -492.05)"/><path class="cls-106" d="M951,509.28l-1.49.75-.76-.75C949.5,507.17,950.25,508.77,951,509.28Z" transform="translate(-926.56 -492.05)"/><path class="cls-107" d="M942.74,517.5c0-1.08.36-2.27-.79-3.06-.14-1.7,1.93-.94,2.29-2.07a3.47,3.47,0,0,1,.64.06,2.28,2.28,0,0,1,1.3,2.05c-.11.74-.43,1.29-1.26,1.37Z" transform="translate(-926.56 -492.05)"/><path class="cls-19" d="M945.79,514.55c-.3-.71-.61-1.42-.91-2.12a3.83,3.83,0,0,1,3.1.61l0,0C948,514.69,947,514.79,945.79,514.55Z" transform="translate(-926.56 -492.05)"/><path class="cls-108" d="M947.24,525c.69-2.65-1.27-1.17-2.14-1.37,0-.53-.05-1.06-.08-1.58l.18-.84a5.39,5.39,0,0,1,4.06-1.12,2,2,0,0,1,1.28,1.62,2.34,2.34,0,0,1-1,1.79L948,525h-.72Z" transform="translate(-926.56 -492.05)"/><path class="cls-10" d="M941.27,499.53c.27-.27.53-.55.8-.83l1.42,0c.67.3,1.12.7.72,1.51-.78,1,.88.87.78,1.57l-2.15-.11C943,500.51,941.76,500.28,941.27,499.53Z" transform="translate(-926.56 -492.05)"/><path class="cls-109" d="M976.5,500.34l-3,.7a1,1,0,0,1,0-1.54l.81-.77c.71-1.19,1.5-2.3,3-2.45.79.12,1.07.65,1.12,1.38-.19.87.23,1.85-.44,2.65Z" transform="translate(-926.56 -492.05)"/><path class="cls-110" d="M969,501.8c-.5-.72-1-1.44-1.49-2.15l3-.87a6,6,0,0,0,.73,0,2.56,2.56,0,0,1,.77,3c0,.25,0,.5,0,.75A4.65,4.65,0,0,0,969,501.8Z" transform="translate(-926.56 -492.05)"/><path class="cls-111" d="M977.24,496.61l-3,2.12,0-2.2c.55-.88,1.07-1.81,2.35-1.64C977.19,495.3,977.64,495.79,977.24,496.61Z" transform="translate(-926.56 -492.05)"/><path class="cls-112" d="M972,501.79a5,5,0,0,1-.77-3l2.23.68c0,.51,0,1,0,1.54Z" transform="translate(-926.56 -492.05)"/><path class="cls-113" d="M976.36,494.88l-2.15,1.65c-.73-.42-.06-.79,0-1.18a2.19,2.19,0,0,1,2.1-1c.25.11.34.23.25.34S976.44,494.88,976.36,494.88Z" transform="translate(-926.56 -492.05)"/><path class="cls-114" d="M945.79,514.55l2.17-1.48a2.7,2.7,0,0,0,1.56-1.51c1.54,0,3.11.12,4.5-.78a3.47,3.47,0,0,1,3.39,1.26c.41.63.82,1.27.22,2a5.56,5.56,0,0,1-3.15.65,8.56,8.56,0,0,1-1,0c-1.58-.23-2.26.94-3,1.95a1,1,0,0,1-.93.11c-.8-1.85-2-1-3-.31s-1.49.66-1.62-.62Z" transform="translate(-926.56 -492.05)"/><path class="cls-115" d="M949.5,516.78h.73c.12.09.24.19.37.27.53.49,1.1.31,1.68.1a3.16,3.16,0,0,1,1-.12,1.82,1.82,0,0,1,.88.4,1.44,1.44,0,0,1,.09.94,9.34,9.34,0,0,1-2.38,2.31,3.87,3.87,0,0,1-2.33-.16c-1.44.24-2.78,1-4.3.7.2-.46.41-.92.61-1.39.48-1.39,2.14-1.28,2.92-2.3Z" transform="translate(-926.56 -492.05)"/><path class="cls-116" d="M948.73,517.53c-.09,1.89-2.11,1.32-2.92,2.3L945,519C946.21,518.49,947,516.82,948.73,517.53Z" transform="translate(-926.56 -492.05)"/><path class="cls-117" d="M947.3,528.76H948l.79,0c-.14,1,.29,2.2-.78,3a1.63,1.63,0,0,1-.76-1.52Z" transform="translate(-926.56 -492.05)"/><path class="cls-118" d="M976.36,494.88a4.51,4.51,0,0,0,0-.52l1.56-.08,4.58,1.53c.81,1.33,0,2-1.06,2.51-1.1-.7-2.39.77-3.46-.29a1.42,1.42,0,0,0-.73-1.42Z" transform="translate(-926.56 -492.05)"/><path class="cls-119" d="M977.21,516.78l-4.47-.16a2,2,0,0,1-2.06-1,2.82,2.82,0,0,1-.48-1.35,4.91,4.91,0,0,1,1.7-2.27,2.32,2.32,0,0,1,2.24-.58l2.3.89c.87-.46.81.09.74.66-.54.75-1.45.69-2.33,1,.66.87,1.88,1,2.37,2Z" transform="translate(-926.56 -492.05)"/><path class="cls-120" d="M983.76,515.44c-.45,1.45-1.07,2.54-2.76,1.27l-1.52-2.13a.82.82,0,0,1-.21-.58c0-.21,0-.31.08-.31a1.52,1.52,0,0,1,.89-.33c.76.06,1.06.67,1.44,1.19Z" transform="translate(-926.56 -492.05)"/><path class="cls-121" d="M969.68,508.53l.75.65.81.88a1.29,1.29,0,0,1,.12,1.58c-1.52.93-2.54.3-3.32-1.08a2,2,0,0,1-.13-1.11C968.27,508.71,968.77,508.22,969.68,508.53Z" transform="translate(-926.56 -492.05)"/><path class="cls-122" d="M981.68,514.55l-1.49-.77a2.66,2.66,0,0,1-1-1.74c.27-.89.61-1.68,1.79-1.26C982.2,511.84,981.49,513.28,981.68,514.55Z" transform="translate(-926.56 -492.05)"/><path class="cls-123" d="M971.25,511.44c0-.46,0-.92,0-1.39,1.22-.07,2.37,0,2.9,1.4l-2.17.82-.38-.13A1,1,0,0,1,971.25,511.44Z" transform="translate(-926.56 -492.05)"/><path class="cls-124" d="M981,510.78l-1.52,1.41a.75.75,0,0,1-.73.3,1.22,1.22,0,0,1-.75-1C978.49,509.42,979.64,509.76,981,510.78Z" transform="translate(-926.56 -492.05)"/><path class="cls-125" d="M978,511.52l.77.79c.25,1-.39,1-1.1,1l-.38-.32-.8-.65A1.53,1.53,0,0,1,978,511.52Z" transform="translate(-926.56 -492.05)"/><path class="cls-126" d="M959.22,535.49l-.74-12a6,6,0,0,1-1.33-2.54,2.82,2.82,0,0,1,1.44-3.13,2.45,2.45,0,0,1,1.88.1c1.79,1.53,1.12,3.62,1.25,5.53a11.83,11.83,0,0,1-.86,3.13c-1.19,1.14-.91,2.37-.26,3.64-1.35,1.8-.34,3.93-.84,5.85Z" transform="translate(-926.56 -492.05)"/><path class="cls-127" d="M966.15,533.17l-1.61.8c.14-1.59-.95-2.65-1.66-3.86s-1-2.43,0-3.65a1.4,1.4,0,0,1,2,0c1.13,1.31,1.24,3,1.71,4.56A2.42,2.42,0,0,1,966.15,533.17Z" transform="translate(-926.56 -492.05)"/><path class="cls-128" d="M960.86,526.61l-.11-3.07c.54-.62.31-1.8,1.43-2a1.93,1.93,0,0,1,1.51.34,1.78,1.78,0,0,1,.42,1c0,1.77-2.1,1.64-2.6,2.95Z" transform="translate(-926.56 -492.05)"/><path class="cls-129" d="M961.51,525.77c-.11-1.63,1.85-1.65,2.24-2.89,2.33,1.17.71,2.38,0,3.59h-1C963,525.1,962.21,525.49,961.51,525.77Z" transform="translate(-926.56 -492.05)"/><path class="cls-130" d="M966.15,533.17,966,531c-.46-.85.31-1.06.75-1.44a7.81,7.81,0,0,1,1.62-1c.89,0,1.42.69,2,1.17,1.73,1.45,1.08,2.88,0,4.32-1.57-.08-1.59,1.86-2.86,2.18C967.47,535,967.31,533.86,966.15,533.17Z" transform="translate(-926.56 -492.05)"/><path class="cls-131" d="M970.4,534c-.79-1.17,1.94-3-.72-3.83a10.28,10.28,0,0,0-.45-2.4,1.92,1.92,0,0,1,.36-1.45,1.81,1.81,0,0,1,1.5-.25,2.51,2.51,0,0,1,1.62,1.91c-2,2.87,1.12,6.35-1,9.27C969.94,536.61,970.68,535.14,970.4,534Z" transform="translate(-926.56 -492.05)"/><path class="cls-132" d="M972.71,528l-1.51-1.51a.59.59,0,0,1-.26-.5c0-.2,0-.3.08-.29a1.62,1.62,0,0,0,1-1.47l2.21,0c-.78,1.13,2,3-.72,3.72Z" transform="translate(-926.56 -492.05)"/><path class="cls-133" d="M969,519.77a1.56,1.56,0,0,0,.75,1.51c.34.56,0,.93-.38,1.28a4.16,4.16,0,0,1-1.91.77,2.84,2.84,0,0,1-1-.17,1.62,1.62,0,0,1-.86-1.27,4.41,4.41,0,0,1,1.07-3C967.64,518.5,968.31,519.12,969,519.77Z" transform="translate(-926.56 -492.05)"/><path class="cls-134" d="M971.93,517.57c.06,1,.1,2-.95,2.56s-1.26-.89-2-1.15-1.2-.85-.66-1.72a2.62,2.62,0,0,1,1-.46A2.59,2.59,0,0,1,971.93,517.57Z" transform="translate(-926.56 -492.05)"/><path class="cls-135" d="M971.93,517.57l-3,0a1.37,1.37,0,0,1-.36-1.06c.5-1.16,1.08-2.16,2.55-1.11l1.6,1.26c0,.3,0,.59,0,.89Z" transform="translate(-926.56 -492.05)"/><path class="cls-136" d="M968.22,517.52,969,519v.79l-2.25-.75-.44.3a1.28,1.28,0,0,1-.76-.7,2.17,2.17,0,0,1,.14-1.58C966.75,516,967.58,516.23,968.22,517.52Z" transform="translate(-926.56 -492.05)"/><path class="cls-137" d="M972,524.25c.33.8.59,1.55-.75,1.51a1.8,1.8,0,0,1-1.31-1.56,1.63,1.63,0,0,1,.55-1.45A1.4,1.4,0,0,1,972,524.25Z" transform="translate(-926.56 -492.05)"/><path class="cls-138" d="M970.47,522.75v1.53a1,1,0,0,1-1,.09c-.78-.65-1.24-1.37-.45-2.34l.73-.75A1.54,1.54,0,0,1,970.47,522.75Z" transform="translate(-926.56 -492.05)"/><path class="cls-139" d="M979.43,513.8c0,.26,0,.52.05.78L977.22,516a1.08,1.08,0,0,1-.36,0c-1.4-.56-4-.58-3.77-2.08.27-1.82,2.72-.53,4.15-1h0C977.76,513.81,978.9,513,979.43,513.8Z" transform="translate(-926.56 -492.05)"/><path class="cls-140" d="M979.39,531l2.33.72c0,.78-.05,1.55-.08,2.32C980.12,533.64,979,532.88,979.39,531Z" transform="translate(-926.56 -492.05)"/><path class="cls-141" d="M981,498.05a2.31,2.31,0,0,0,1.54-2.24h.62l1.56,0c0,.23,0,.46,0,.7-1.09.39-1.27,1.16-.87,2.15-.92.71-1.84,1.32-2.83.12a.44.44,0,0,1-.2-.5C980.82,498.14,980.88,498.05,981,498.05Z" transform="translate(-926.56 -492.05)"/><path class="cls-72" d="M981,498.05v.75c-1.32-.13-1.94,1.09-3,1.51.25-.76-.9-1.52,0-2.28C979,498.32,980,496.67,981,498.05Z" transform="translate(-926.56 -492.05)"/><path class="cls-142" d="M969.68,508.53l-1.45.79a1.78,1.78,0,0,1-2,.29,5.59,5.59,0,0,1,.51-4.07h.76c.58.56,1.43.63,2,1.14.33.36.6.74.34,1.26A2,2,0,0,1,969.68,508.53Z" transform="translate(-926.56 -492.05)"/><path class="cls-143" d="M969.86,507.94l-.9-.9c-.43-.84.18-1.15.76-1.48l0-.05h1.44A3.4,3.4,0,0,1,969.86,507.94Z" transform="translate(-926.56 -492.05)"/><path class="cls-144" d="M957.74,521.28c.87.54.72,1.42.74,2.24l-1.41,0a5.85,5.85,0,0,1-.07-.72C956.49,521.89,956.41,521.23,957.74,521.28Z" transform="translate(-926.56 -492.05)"/><path class="cls-145" d="M949.5,523.51a1.65,1.65,0,0,1,.72-1.51,1.68,1.68,0,0,1,1.7-1.08A1.49,1.49,0,0,1,953,522a1.58,1.58,0,0,1-.5,1.48l-.78,2.2C948.84,527.12,950.62,523.86,949.5,523.51Z" transform="translate(-926.56 -492.05)"/><path class="cls-146" d="M957.74,521.28a1.52,1.52,0,0,0-.74,1.49,1.92,1.92,0,0,0-2.23,0,1.26,1.26,0,0,1-.4-.84c.25-1.12,1.07-1.95,1.5-3a2.28,2.28,0,0,1,1.65-1.05,1.36,1.36,0,0,1,.91.4Z" transform="translate(-926.56 -492.05)"/><path class="cls-147" d="M954.72,522c0,.24,0,.49,0,.74-.5,1-.9,2.39-2.28.74V522a1.51,1.51,0,0,1,1.38-.53A1.64,1.64,0,0,1,954.72,522Z" transform="translate(-926.56 -492.05)"/><path class="cls-148" d="M966.72,505.54c-.06,1.28.73,2.74-.75,3.74.27,1-.48,1.17-1.17,1.39a3.3,3.3,0,0,1-1-.07,1.46,1.46,0,0,1-1-1c.15-.79.84-1.28,1.11-2a1.24,1.24,0,0,0-.56-1.44,1.94,1.94,0,0,1-.53-.76c.12-.49.31-.9.94-.58a1.55,1.55,0,0,0,1.49-.75Z" transform="translate(-926.56 -492.05)"/><path class="cls-149" d="M969.72,505.56,969,507a1.36,1.36,0,0,1-1.48-1.5c.79-.47-.62-1.12,0-1.36C968.7,503.71,968.93,505.16,969.72,505.56Z" transform="translate(-926.56 -492.05)"/><path class="cls-150" d="M964.48,503.29a1.51,1.51,0,0,1-.75-1.49c.67-.25,1.44-.75,1.87.2S965.22,503.18,964.48,503.29Z" transform="translate(-926.56 -492.05)"/><path class="cls-151" d="M957.71,499.52v.83c.18.69-.23,1-.78,1.17a1.4,1.4,0,0,1-1.43-.55C955.57,499.48,956.68,499.57,957.71,499.52Z" transform="translate(-926.56 -492.05)"/><path class="cls-152" d="M955.5,501l1.43.15a1.15,1.15,0,0,1,.05,1.63,1.71,1.71,0,0,1-2.24-.21v-.77Z" transform="translate(-926.56 -492.05)"/><path class="cls-153" d="M957,502.53c0-.47,0-.94-.05-1.41l.78-.77,3,.7.71.75a1.74,1.74,0,0,1-.09,2.38,5.2,5.2,0,0,1-2.9.06C958.53,503.19,957,503.54,957,502.53Z" transform="translate(-926.56 -492.05)"/><path class="cls-154" d="M960.77,504.07c.85-.57.7-1.44.69-2.27.75,1,1.51,2,2.27,3l-.74.73a.69.69,0,0,1,0,.94c-1.4.55-2-.32-2.48-1.41A1,1,0,0,1,960.77,504.07Z" transform="translate(-926.56 -492.05)"/><path class="cls-155" d="M944.21,500.24l-.72-1.51a1.53,1.53,0,0,1,1.53-.68c.66,1.06,2.42,1.29,2.25,3Z" transform="translate(-926.56 -492.05)"/><path class="cls-156" d="M957.75,513.78l-.76-1.5c.18-.9-.49-1.5-.77-2.24,0-.73,0-1.45,0-2.17,0-.28.05-.55.08-.83,2-1.61,3.46-1.52,4,1.32.17.95.6,1.82.8,2.75a3.34,3.34,0,0,1-.66,2.66,3,3,0,0,1-1.87,1C957.94,514.7,957.5,514.5,957.75,513.78Z" transform="translate(-926.56 -492.05)"/><path class="cls-157" d="M960.72,511.54a3.42,3.42,0,0,1-1.43-2.84c.18-2.91-1.57-1.95-3-1.66.31-1.1.34-1.12,2.28-1.54.62-.57,1.22-1.23,2.2-.69.79.42,1.07,1.62,2.22,1.51.6,1.43-1,2.44-.71,3.82a2.62,2.62,0,0,1-.58,1.43A.78.78,0,0,1,960.72,511.54Z" transform="translate(-926.56 -492.05)"/><path class="cls-158" d="M957,502.53c.33.67,1.86.15,1.49,1.51a.49.49,0,0,1,.15.53c-.07.17-.14.25-.2.25L954,504a1.54,1.54,0,0,1,.75-1.5Z" transform="translate(-926.56 -492.05)"/><path class="cls-159" d="M958.42,504.82c0-.26,0-.52.05-.78a2,2,0,0,1,2.3,0c0,.25,0,.49,0,.74l-2.2.69Z" transform="translate(-926.56 -492.05)"/><path class="cls-160" d="M956.22,510c.75,0,1.57.15,1.8,1s-.47,1-1,1.28l-3-1.5V510Z" transform="translate(-926.56 -492.05)"/><path class="cls-161" d="M951.73,521.26l-1.51.74-.72-1.48a2,2,0,0,1,2.24,0,.45.45,0,0,1,.16.5C951.85,521.18,951.79,521.26,951.73,521.26Z" transform="translate(-926.56 -492.05)"/><path class="cls-162" d="M957.75,513.78l.72.71a1.1,1.1,0,0,1,.18,1,2.45,2.45,0,0,1-1.17,1.08,4.84,4.84,0,0,1-1.64.29,2.93,2.93,0,0,1-2.11-.78,1.86,1.86,0,0,1,.09-2.18Z" transform="translate(-926.56 -492.05)"/><path class="cls-23" d="M950.23,516.78c-.13-2.22.87-3.23,3.11-2.92a2.51,2.51,0,0,1-.43,1.8,3.78,3.78,0,0,1-1.28,1.44,1.31,1.31,0,0,1-1.36-.26Z" transform="translate(-926.56 -492.05)"/><path class="cls-163" d="M952.38,515.35l1-1.49.48,0c0,.7.07,1.4.11,2.1a1.21,1.21,0,0,1-.85.39C952.56,516.22,952.24,516,952.38,515.35Z" transform="translate(-926.56 -492.05)"/><path class="cls-164" d="M951.73,521.26c0-.25,0-.5,0-.74,0-1.47,1.3-1.7,2.23-2.26a2.18,2.18,0,0,1,.77,1.56A3.46,3.46,0,0,1,954,522h-1.49Z" transform="translate(-926.56 -492.05)"/><path class="cls-165" d="M953.25,516.15l.68-.17,2.31,0c.37.86-.12,1.36-.75,1.81a1.37,1.37,0,0,1-1.5-.32h-.75A.88.88,0,0,1,953.25,516.15Z" transform="translate(-926.56 -492.05)"/><path class="cls-166" d="M954,517.52l1.48,0c2,.32.17,1.27.32,1.89a1.09,1.09,0,0,1-1.8.42c0-.52,0-1,0-1.55C954,518,954,517.77,954,517.52Z" transform="translate(-926.56 -492.05)"/><path class="cls-167" d="M950.27,516.84l1.47,0a1.23,1.23,0,0,1,.74.72c-.51.76-1.37,1.42-2.11,1.19C949.45,518.44,950.45,517.49,950.27,516.84Z" transform="translate(-926.56 -492.05)"/><path class="cls-168" d="M952.48,517.53l-.74-.72c.21-.49.43-1,.64-1.46l.87.8c0,.46,0,.92,0,1.37Z" transform="translate(-926.56 -492.05)"/><path class="cls-169" d="M972,512.27c.12,1.17-1.05,1.48-1.5,2.27a2,2,0,0,1-1.42.47,8.59,8.59,0,0,0-4,.24,3,3,0,0,1-2.11-.52,1.87,1.87,0,0,1-.31-1.65,3.63,3.63,0,0,1,2.65-2.17A4.54,4.54,0,0,1,967,511c1.54.94,3.34.78,5,1.24Z" transform="translate(-926.56 -492.05)"/><path class="cls-170" d="M969,514.5l1.5,0c.23.27.45.54.67.82a2.18,2.18,0,0,0-2.26,1.46c-1.19-.1-2.67-.2-2.35-1.81C966.76,513.88,968.09,514.45,969,514.5Z" transform="translate(-926.56 -492.05)"/><path class="cls-119" d="M979.43,513.8c-.82,0-1.71.12-2.21-.81.6,0,1.19,0,1.5-.68.24,0,.48-.07.71-.12a1.7,1.7,0,0,1,.76,1.59Z" transform="translate(-926.56 -492.05)"/><path class="cls-171" d="M966.7,511.56l-1.53-.15c-.58-.24-1-.56-.7-1.3.6-.09,1.22-.17,1.5-.83l2.26,0c0,.25,0,.5,0,.75C968.41,511.28,968,511.82,966.7,511.56Z" transform="translate(-926.56 -492.05)"/><path class="cls-172" d="M966.7,511.56l1.52-1.49c.9.69,1.58,1.89,3,1.37l.75.78C970.23,512.06,968.33,512.91,966.7,511.56Z" transform="translate(-926.56 -492.05)"/><path class="cls-173" d="M962.17,521.93l-1.42,1.61c-.32-1.75.67-3.7-.77-5.3a.7.7,0,0,1,.19-1,2,2,0,0,1,2.27.2,3.38,3.38,0,0,1,.65,1.7A3.23,3.23,0,0,1,962.17,521.93Z" transform="translate(-926.56 -492.05)"/><path class="cls-174" d="M960,517.55v.69l-1.55,0-.7-.08a1.64,1.64,0,0,1,0-2.26l.75-.69c.89-.61,1.5-.27,1.95.59A1.86,1.86,0,0,1,960,517.55Z" transform="translate(-926.56 -492.05)"/><path class="cls-175" d="M967.49,530.25A1.56,1.56,0,0,0,966,531c-1-1.33-1.09-3-1.47-4.48.08-1.06-.21-2.35,1.52-2.35a2.83,2.83,0,0,1,.8.78A5.1,5.1,0,0,1,967.49,530.25Z" transform="translate(-926.56 -492.05)"/><path class="cls-176" d="M966,524.27l-1.44,2.21c-.24,0-.49,0-.73,0-.63-1.19,1.29-2.41,0-3.59l0-.85.29-.33a2,2,0,0,1,1.27-.19,1.41,1.41,0,0,1,.68.52l.75.75C967.21,523.64,967.25,524.28,966,524.27Z" transform="translate(-926.56 -492.05)"/><path class="cls-177" d="M962.17,521.93l.06-2.89a2.67,2.67,0,0,1,3.73,0l0,0c.27.61-.08.93-.54,1.2-1.13,0-1.33,1-1.74,1.75v0Z" transform="translate(-926.56 -492.05)"/><path class="cls-178" d="M967.49,530.25c.25-2-.61-3.57-1.51-5.18.77-.85,1.58-.39,2.39-.08a2.26,2.26,0,0,1,1.29,1.55v1.37c-.22.7-1,.43-1.41.83A1.64,1.64,0,0,1,967.49,530.25Z" transform="translate(-926.56 -492.05)"/><path class="cls-179" d="M968.24,528.74c.27-.62.83-.74,1.41-.83,1.17.75.39,1.53,0,2.3Z" transform="translate(-926.56 -492.05)"/><path class="cls-180" d="M969.66,526.54l-1.41-.81c-.38-.76,0-1.25.59-1.69a.79.79,0,0,1,.89.22l.73,0c.25.5.51,1,.77,1.48l0,.75Z" transform="translate(-926.56 -492.05)"/><path class="cls-181" d="M969,524.27c-.24.49-.47,1-.71,1.46l-2.27-.66c0-.27,0-.54,0-.8a1.49,1.49,0,0,0,.74-1.49h.77A2.77,2.77,0,0,1,969,524.27Z" transform="translate(-926.56 -492.05)"/><path class="cls-182" d="M965.23,519.78,966,519l.73,0a5.06,5.06,0,0,1-.76,3l-.74,0A1.58,1.58,0,0,1,965.23,519.78Z" transform="translate(-926.56 -492.05)"/><path class="cls-183" d="M969,524.27l-1.48-1.49L969,522c.25.75.49,1.49.74,2.23Z" transform="translate(-926.56 -492.05)"/><path class="cls-139" d="M969,514.5c-.66.24-1.88.47-1.89.73,0,1,1.21,1,1.8,1.59a5.51,5.51,0,0,1,.07.71h-.73c-.77-.25-1.52-1.18-2.31,0-.71.16-1-.28-1.25-.84a2.19,2.19,0,0,1,.56-2.11C966.46,514,967.71,513.12,969,514.5Z" transform="translate(-926.56 -492.05)"/><path class="cls-184" d="M965.23,516.79l.68.69c0,.51,0,1,.05,1.53l-3.73,0v-1.47a2,2,0,0,1,.7-.65C963.69,516.65,964.43,516.23,965.23,516.79Z" transform="translate(-926.56 -492.05)"/><path class="cls-185" d="M957.7,516l0,2.26-1.49.82c-.22.35-.47.37-.73,0,0-.52.8-1.06,0-1.56l.77-1.47Z" transform="translate(-926.56 -492.05)"/><path class="cls-186" d="M955.51,519.06l.73,0c.29,1.4-.69,2.16-1.52,3H954c0-.74,0-1.47,0-2.21A1.68,1.68,0,0,0,955.51,519.06Z" transform="translate(-926.56 -492.05)"/><path class="cls-187" d="M961.48,510c-.31-1.56.81-2.55,1.48-3.71l0-.8.73,0c.56.65,1.19,1.27.76,2.25a1.36,1.36,0,0,1-1.5,1.49C962.64,509.84,962.32,510.46,961.48,510Z" transform="translate(-926.56 -492.05)"/><path class="cls-188" d="M961.48,510l1.5-.75.79.78a2.22,2.22,0,0,1-.67,2.35,1.78,1.78,0,0,1-1,.25c-.51-.21-.93-.47-.64-1.14Z" transform="translate(-926.56 -492.05)"/><path class="cls-189" d="M962.93,512.3l.84-2.24a3.25,3.25,0,0,1,.7.05l.7,1.3-2.11,1.51c-.22-.1-.31-.22-.28-.37S962.87,512.3,962.93,512.3Z" transform="translate(-926.56 -492.05)"/><path class="cls-190" d="M964.48,507.79c-.25-.75-.5-1.5-.76-2.25C965.32,505.83,965.69,506.54,964.48,507.79Z" transform="translate(-926.56 -492.05)"/><path class="cls-191" d="M960,516.1a1.6,1.6,0,0,0-1.56-.84c0-.26,0-.52,0-.77a1.6,1.6,0,0,1,1.51-.73c.63-.26.93.11,1.18.6a2.34,2.34,0,0,1,0,1C961,515.89,960.64,516.24,960,516.1Z" transform="translate(-926.56 -492.05)"/><path class="cls-192" d="M960.76,514.54l-.78-.78c.25-.74.5-1.48.74-2.22l.75,0,.77.78C962.28,513.4,962.46,514.59,960.76,514.54Z" transform="translate(-926.56 -492.05)"/><path class="cls-193" d="M965.23,516.79l-2.25.71a2.33,2.33,0,0,1-1-2.07,1.23,1.23,0,0,1,1.06-.85l2.2-.05C965.22,515.28,965.23,516,965.23,516.79Z" transform="translate(-926.56 -492.05)"/><path class="cls-194" d="M963,514.58l-.71.72a1,1,0,0,1-1.5,0,6,6,0,0,1,0-.73l1.48-2.24h.69a6.19,6.19,0,0,1,.13.62C963,513.47,963,514,963,514.58Z" transform="translate(-926.56 -492.05)"/><path class="cls-195" d="M960.81,515.27l1.5,0c.22.74.44,1.47.67,2.2-.25,0-.5,0-.75.07l-2.25,0,0-1.45C960.28,515.82,960.55,515.55,960.81,515.27Z" transform="translate(-926.56 -492.05)"/><path class="cls-196" d="M965.23,519.78c0,.74,0,1.48,0,2.23l-1.51,0C963.48,520.75,963.11,519.41,965.23,519.78Z" transform="translate(-926.56 -492.05)"/></svg>